<?xml version="1.0" encoding="UTF-8"?>
<svg version="1.1" xmlns="http://www.w3.org/2000/svg" width="32" height="32">
<path d="M0 0 C8.25 0 16.5 0 25 0 C25 8.99193548 25 8.99193548 20.75 13.6875 C19.96109375 14.57824219 19.1721875 15.46898437 18.359375 16.38671875 C17.58078125 17.24910156 16.8021875 18.11148437 16 19 C14.68 20.65 13.36 22.3 12 24 C18.93 24.495 18.93 24.495 26 25 C26 27.31 26 29.62 26 32 C17.09 32 8.18 32 -1 32 C-1 24.12657318 -1 24.12657318 1.3359375 21.578125 C2.06683594 20.75248047 2.06683594 20.75248047 2.8125 19.91015625 C3.328125 19.36230469 3.84375 18.81445312 4.375 18.25 C5.38380232 17.13109996 6.39165007 16.01133838 7.3984375 14.890625 C8.25695313 13.93671875 9.11546875 12.9828125 10 12 C10.66 11.01 11.32 10.02 12 9 C8.04 8.67 4.08 8.34 0 8 C0 5.36 0 2.72 0 0 Z " fill="#1DAADD" transform="translate(3,0)"/>
</svg>
