<?xml version="1.0" encoding="UTF-8"?>
<svg version="1.1" xmlns="http://www.w3.org/2000/svg" width="512" height="512">
<path d="M0 0 C168.96 0 337.92 0 512 0 C512 168.96 512 337.92 512 512 C343.04 512 174.08 512 0 512 C0 343.04 0 174.08 0 0 Z " fill="#3B88C3" transform="translate(0,0)"/>
<path d="M0 0 C0.72746677 -0.00367669 1.45493355 -0.00735338 2.20444477 -0.01114148 C4.63694461 -0.02213583 7.06940168 -0.02601493 9.50192261 -0.02983093 C11.24833816 -0.03609884 12.99475238 -0.04274593 14.74116516 -0.04974365 C20.47244342 -0.07074908 26.20372183 -0.08114335 31.93502808 -0.09111023 C33.91130461 -0.09515922 35.88758101 -0.09927618 37.86385727 -0.10346031 C47.15060866 -0.12250493 56.43735215 -0.13673701 65.72411931 -0.14507228 C76.42854848 -0.1548397 87.1327706 -0.1811494 97.83712685 -0.22157317 C106.12098459 -0.25177795 114.40478312 -0.26654533 122.68869483 -0.26985329 C127.63153714 -0.27219894 132.57415806 -0.28109608 137.51694107 -0.30631447 C142.17094803 -0.32967639 146.8245891 -0.33379591 151.4786396 -0.32355309 C153.18012144 -0.32305957 154.88162179 -0.3293252 156.58304787 -0.34310913 C170.1359851 -0.44670137 180.45970986 1.03378457 190.57565308 10.76435852 C197.97426777 19.15312239 198.25973988 28.49992131 197.67721558 39.14717102 C195.88476622 50.12972089 189.53117325 59.33923027 182.76608276 67.89961243 C179.31139478 72.27580475 176.06015416 76.76624556 172.86471558 81.33467102 C168.6984401 87.28256422 164.49757114 93.20191397 160.23971558 99.08467102 C159.69984009 99.83063538 159.1599646 100.57659973 158.60372925 101.34516907 C157.50883513 102.85730529 156.41370136 104.36926801 155.31832886 105.88105774 C152.60073384 109.63361902 149.88927085 113.39060522 147.17721558 117.14717102 C146.09391196 118.64719248 145.01057862 120.14719248 143.92721558 121.64717102 C143.39096558 122.38967102 142.85471558 123.13217102 142.30221558 123.89717102 C137.42721557 130.64717102 137.42721557 130.64717102 135.80148315 132.89814758 C134.72054366 134.39485803 133.63965157 135.8916027 132.55880737 137.38838196 C129.81424018 141.18899739 127.06879591 144.988974 124.32174683 148.78779602 C119.42376224 155.56257844 114.52977469 162.33975204 109.67721558 169.14717102 C104.26923438 176.7337646 98.8099443 184.28307243 93.35055542 191.8327179 C90.62458421 195.60310119 87.90097008 199.37518621 85.17721558 203.14717102 C81.89327597 207.6949268 78.60876513 212.24226476 75.32174683 216.78779602 C63.58966792 233.01374928 63.58966792 233.01374928 52.02633667 249.36006165 C51.39843231 250.25745056 50.77052795 251.15483948 50.12359619 252.079422 C49.64629059 252.76177917 49.16898499 253.44413635 48.67721558 254.14717102 C49.67967961 254.14937086 49.67967961 254.14937086 50.70239544 254.15161514 C67.0136163 254.18877376 83.32459755 254.24790756 99.63564587 254.33107376 C107.52377318 254.37077138 115.41180207 254.40321072 123.30001831 254.41816711 C130.1806972 254.43123202 137.06115867 254.45831891 143.94171506 254.50178409 C147.58016147 254.52429104 151.21834083 254.54008825 154.85686302 254.53905487 C158.93294463 254.53816131 163.00824707 254.56859315 167.084198 254.60127258 C168.2717569 254.59624222 169.4593158 254.59121185 170.68286133 254.58602905 C181.46096978 254.71890332 192.15738958 256.46716841 200.09127808 264.28388977 C206.00328625 271.2297713 207.05296376 278.1696968 206.95455933 287.08076477 C206.26383374 294.71766034 202.24416828 301.01533646 196.67721558 306.14717102 C189.63384569 311.55521674 182.56187648 313.4549573 173.68959045 313.40786743 C172.91479019 313.41169298 172.13998993 313.41551853 171.34171087 313.41946 C168.76101136 313.4297293 166.18053687 313.42580945 163.599823 313.42182922 C161.7431162 313.42617911 159.88641121 313.43136318 158.02970886 313.43731689 C152.99653432 313.45068961 147.96343496 313.45128739 142.93024611 313.4487536 C138.72317061 313.44768253 134.51611024 313.45257081 130.30903798 313.45735902 C120.37991311 313.46844862 110.45082607 313.46889493 100.521698 313.46284485 C90.29191471 313.4568072 80.06226903 313.46911206 69.83250922 313.49041492 C61.03822047 313.50805248 52.24397544 313.5140288 43.44966966 313.51077718 C38.20233659 313.50896733 32.95510165 313.51157051 27.70778465 313.52549171 C22.77062177 313.53810019 17.83367272 313.53609739 12.89651299 313.52308083 C11.08980486 313.52072193 9.28308154 313.523425 7.47639084 313.53170395 C-6.84366947 313.59256563 -17.22356152 312.56549969 -28.04544067 302.55342102 C-33.96544702 296.38614169 -35.43977438 289.19033746 -35.82278442 280.83467102 C-35.37123221 267.013948 -27.92219803 257.05177797 -19.98294067 246.38398743 C-17.77678831 243.41152156 -15.61329989 240.40925337 -13.44973755 237.40571594 C-12.36177814 235.89540494 -11.27192122 234.38645907 -10.1802063 232.87886047 C-6.5227929 227.82812078 -2.90961356 222.74822881 0.67721558 217.64717102 C5.33858307 211.01794391 10.06665988 204.43988565 14.82174683 197.87763977 C18.47717274 192.82634716 22.09067712 187.74756577 25.67721558 182.64717102 C32.46932028 172.99193639 39.39541771 163.4351117 46.32272339 153.87666321 C52.65549821 145.13570307 58.94911902 136.37096868 65.15792847 127.54145813 C69.32976631 121.61737994 73.57034934 115.74477027 77.82174683 109.87763977 C81.97592466 104.13714105 86.07029656 98.35671702 90.14450073 92.5592804 C94.4179658 86.48861644 98.76263152 80.47082503 103.13815308 74.4733429 C105.78979566 70.82395215 108.37024293 67.1421866 110.86520386 63.38349915 C111.65980515 62.18763184 111.65980515 62.18763184 112.47045898 60.96760559 C112.86868866 60.36686218 113.26691833 59.76611877 113.67721558 59.14717102 C113.06375369 59.14570446 112.45029181 59.1442379 111.81824017 59.1427269 C96.85128452 59.10558143 81.8845879 59.04646491 66.91782665 58.96326828 C59.67982325 58.92355691 52.44192732 58.89112452 45.2038269 58.87617493 C38.89081982 58.86311718 32.57805 58.83604836 26.26517659 58.79255795 C22.92629166 58.77003445 19.58795476 58.75634561 16.24895287 58.75528717 C12.51008261 58.75291074 8.77212828 58.72577379 5.03341675 58.69306946 C3.94152542 58.69809982 2.84963409 58.70313019 1.72465515 58.70831299 C-8.76816867 58.5670239 -17.80900594 55.86987113 -25.43997192 48.47138977 C-30.73015733 41.94097418 -32.03153672 34.2342446 -31.70169067 25.99873352 C-30.52069787 17.11084952 -25.29738115 9.95850653 -18.26809692 4.57295227 C-12.22800497 0.5956087 -7.22802063 0.02374032 0 0 Z " fill="#FEFEFE" transform="translate(170.32278442382813,98.85282897949219)"/>
<path d="M0 0 C0.33 0 0.66 0 1 0 C1 15.18 1 30.36 1 46 C-14.18 46 -29.36 46 -45 46 C-41.63451628 44.31725814 -38.47557587 43.10451361 -34.9375 41.875 C-19.83448468 36.08438202 -10.23647424 25.6844037 -3.41015625 11.33203125 C-1.80761282 7.54541201 -0.72687505 4.0381947 0 0 Z " fill="#000000" transform="translate(511,466)"/>
<path d="M0 0 C1.68274186 3.36548372 2.89548639 6.52442413 4.125 10.0625 C9.91561798 25.16551532 20.3155963 34.76352576 34.66796875 41.58984375 C38.45458799 43.19238718 41.9618053 44.27312495 46 45 C46 45.33 46 45.66 46 46 C30.82 46 15.64 46 0 46 C0 30.82 0 15.64 0 0 Z " fill="#000000" transform="translate(0,466)"/>
<path d="M0 0 C15.18 0 30.36 0 46 0 C46 15.18 46 30.36 46 46 C44.31725814 42.63451628 43.10451361 39.47557587 41.875 35.9375 C36.08438202 20.83448468 25.6844037 11.23647424 11.33203125 4.41015625 C7.54541201 2.80761282 4.0381947 1.72687505 0 1 C0 0.67 0 0.34 0 0 Z " fill="#000000" transform="translate(466,0)"/>
<path d="M0 0 C15.18 0 30.36 0 46 0 C42.63451628 1.68274186 39.47557587 2.89548639 35.9375 4.125 C20.83448468 9.91561798 11.23647424 20.3155963 4.41015625 34.66796875 C2.80761282 38.45458799 1.72687505 41.9618053 1 46 C0.67 46 0.34 46 0 46 C0 30.82 0 15.64 0 0 Z " fill="#000000" transform="translate(0,0)"/>
</svg>
